<svg width="572" height="192" viewBox="0 0 572 192" fill="none" xmlns="http://www.w3.org/2000/svg">
<path d="M425.22 37.0781C425.781 32.9277 426.917 29.2534 428.625 26.0552C430.334 22.8325 432.422 20.4399 434.888 18.8774C437.378 17.3149 440.161 16.5703 443.237 16.6436C445.581 16.6924 447.717 17.2417 449.646 18.2915C451.575 19.3169 453.101 20.8794 454.224 22.979L458.252 0.75H462.573L452.795 57H448.73L449.719 51.7266C446.277 55.877 442.004 57.8789 436.902 57.7324C433.215 57.6348 430.322 56.2065 428.223 53.4478C426.147 50.6646 425.061 46.9292 424.963 42.2417C424.915 40.728 424.976 39.2632 425.146 37.8472L425.22 37.0781ZM429.614 37.8105C429.419 39.4463 429.346 41.1919 429.395 43.0474C429.492 46.3921 430.261 49.0288 431.702 50.9575C433.167 52.8618 435.242 53.8628 437.927 53.9604C440.637 54.0337 443.018 53.4111 445.068 52.0928C447.119 50.7744 448.853 49.0166 450.269 46.8193L453.455 28.1426C452.747 25.7744 451.575 23.9189 449.939 22.5762C448.328 21.209 446.265 20.4888 443.75 20.4155C440.039 20.2935 436.938 21.7217 434.448 24.7002C431.982 27.6543 430.396 31.7681 429.688 37.0415L429.614 37.8105ZM469.128 57H464.734L471.655 17.376H476.013L469.128 57ZM472.864 5.91357C472.986 4.32666 474.036 3.32568 476.013 2.91064C476.965 3.08154 477.637 3.38672 478.027 3.82617C478.442 4.24121 478.711 4.93701 478.833 5.91357C478.589 6.84131 478.235 7.5249 477.771 7.96436C477.307 8.37939 476.611 8.68457 475.684 8.87988C473.706 8.58691 472.766 7.59814 472.864 5.91357ZM496.301 54.0703C499.182 54.168 501.721 53.3745 503.918 51.6899C506.14 49.981 507.617 47.686 508.35 44.8052H512.488C511.755 48.7358 509.827 51.9097 506.702 54.3267C503.601 56.7192 500.061 57.8667 496.082 57.769C492.883 57.6958 490.198 56.8169 488.025 55.1323C485.852 53.4478 484.277 51.1162 483.301 48.1377C482.349 45.1592 482.043 41.8022 482.385 38.0669L482.532 36.4922C482.825 33.9287 483.447 31.4385 484.399 29.0215C485.376 26.6045 486.67 24.4683 488.281 22.6128C489.893 20.7329 491.809 19.2559 494.031 18.1816C496.277 17.083 498.804 16.5703 501.611 16.6436C505.664 16.7412 508.887 18.1084 511.279 20.7451C513.672 23.3818 514.795 26.7266 514.648 30.7793L510.51 30.7427C510.559 27.6909 509.766 25.2251 508.13 23.3452C506.494 21.4653 504.26 20.4766 501.428 20.3789C498.401 20.2812 495.728 21.1602 493.408 23.0156C491.089 24.8711 489.343 27.4956 488.171 30.8892C487 34.2827 486.45 37.8838 486.523 41.6924C486.597 45.623 487.476 48.6504 489.16 50.7744C490.845 52.874 493.225 53.9727 496.301 54.0703ZM523.694 57H519.299L526.221 17.376H530.579L523.694 57ZM527.429 5.91357C527.551 4.32666 528.601 3.32568 530.579 2.91064C531.531 3.08154 532.202 3.38672 532.593 3.82617C533.008 4.24121 533.276 4.93701 533.398 5.91357C533.154 6.84131 532.8 7.5249 532.336 7.96436C531.873 8.37939 531.177 8.68457 530.249 8.87988C528.271 8.58691 527.332 7.59814 527.429 5.91357ZM536.584 36.8218C537.024 32.9888 538.196 29.4854 540.1 26.3115C542.004 23.1133 544.373 20.6841 547.205 19.0239C550.061 17.3638 553.149 16.5703 556.47 16.6436C559.741 16.6924 562.524 17.5957 564.819 19.3535C567.139 21.0869 568.823 23.4673 569.873 26.4946C570.947 29.4976 571.313 32.8301 570.972 36.4922L570.898 37.188C570.166 43.438 567.944 48.4551 564.233 52.2393C560.547 56.0234 556.116 57.8545 550.94 57.7324C546.497 57.6592 542.944 56.0234 540.283 52.8252C537.622 49.627 536.316 45.4033 536.365 40.1543L536.475 38.0669L536.584 36.8218ZM540.833 38.0669C540.515 40.9722 540.723 43.6577 541.455 46.1235C542.212 48.5649 543.408 50.4814 545.044 51.873C546.68 53.2646 548.718 53.9971 551.16 54.0703C553.796 54.1191 556.201 53.4478 558.374 52.0562C560.571 50.6646 562.378 48.6992 563.794 46.1602C565.21 43.6211 566.125 40.8135 566.541 37.7373L566.65 36.5288C567.09 31.8169 566.357 27.9717 564.453 24.9932C562.573 21.9902 559.839 20.4521 556.25 20.3789C552.344 20.2568 548.962 21.7705 546.106 24.9199C543.274 28.0449 541.541 32.2075 540.906 37.4077L540.833 38.0669ZM0.927734 157V50.3594H35.2783C44.7021 50.3594 53.1738 52.5078 60.6934 56.8047C68.2129 61.0527 74.0723 67.083 78.2715 74.8955C82.5195 82.6592 84.668 91.375 84.7168 101.043V105.95C84.7168 115.716 82.6416 124.48 78.4912 132.244C74.3896 139.959 68.5791 146.014 61.0596 150.408C53.5889 154.754 45.2393 156.951 36.0107 157H0.927734ZM26.6357 70.208V137.225H35.5713C42.9443 137.225 48.6084 134.612 52.5635 129.388C56.5186 124.114 58.4961 116.302 58.4961 105.95V101.336C58.4961 91.0332 56.5186 83.2695 52.5635 78.0449C48.6084 72.8203 42.8467 70.208 35.2783 70.208H26.6357ZM93.6523 116.644C93.6523 108.733 95.1904 101.702 98.2666 95.5498C101.343 89.3486 105.762 84.5879 111.523 81.2676C117.285 77.9473 124.048 76.2871 131.812 76.2871C143.677 76.2871 153.027 79.9736 159.863 87.3467C166.699 94.6709 170.117 104.656 170.117 117.303V118.182C170.117 130.535 166.675 140.35 159.79 147.625C152.954 154.852 143.677 158.465 131.958 158.465C120.679 158.465 111.621 155.096 104.785 148.357C97.9492 141.57 94.2627 132.391 93.7256 120.818L93.6523 116.644ZM118.335 118.182C118.335 125.506 119.482 130.877 121.777 134.295C124.072 137.713 127.466 139.422 131.958 139.422C140.747 139.422 145.239 132.659 145.435 119.134V116.644C145.435 102.435 140.894 95.3301 131.812 95.3301C123.56 95.3301 119.092 101.458 118.408 113.714L118.335 118.182ZM219.336 158.465C207.178 158.465 197.339 154.852 189.819 147.625C182.3 140.35 178.54 130.901 178.54 119.28V117.229C178.54 109.124 180.029 101.971 183.008 95.7695C186.035 89.5684 190.43 84.7832 196.191 81.4141C201.953 77.9961 208.789 76.2871 216.699 76.2871C227.832 76.2871 236.621 79.7539 243.066 86.6875C249.512 93.5723 252.734 103.191 252.734 115.545V125.14H203.662C204.541 129.583 206.47 133.074 209.448 135.613C212.427 138.152 216.284 139.422 221.021 139.422C228.833 139.422 234.937 136.688 239.331 131.219L250.61 144.549C247.534 148.797 243.164 152.19 237.5 154.729C231.885 157.22 225.83 158.465 219.336 158.465ZM216.553 95.3301C209.326 95.3301 205.029 100.115 203.662 109.686H228.564V107.781C228.662 103.826 227.661 100.774 225.562 98.626C223.462 96.4287 220.459 95.3301 216.553 95.3301ZM285.4 77.752L286.206 87.0537C291.675 79.876 299.219 76.2871 308.838 76.2871C317.09 76.2871 323.242 78.7529 327.295 83.6846C331.396 88.6162 333.521 96.0381 333.667 105.95V157H308.911V106.976C308.911 102.972 308.105 100.042 306.494 98.1865C304.883 96.2822 301.953 95.3301 297.705 95.3301C292.871 95.3301 289.282 97.2344 286.938 101.043V157H262.256V77.752H285.4ZM380.908 139.422C384.375 139.422 387.061 138.494 388.965 136.639C390.869 134.734 391.797 132.098 391.748 128.729H414.893C414.893 137.42 411.768 144.549 405.518 150.115C399.316 155.682 391.309 158.465 381.494 158.465C369.971 158.465 360.889 154.852 354.248 147.625C347.607 140.398 344.287 130.389 344.287 117.596V116.57C344.287 108.562 345.752 101.507 348.682 95.4033C351.66 89.251 355.933 84.5391 361.499 81.2676C367.065 77.9473 373.657 76.2871 381.274 76.2871C391.577 76.2871 399.756 79.1436 405.811 84.8564C411.865 90.5693 414.893 98.3086 414.893 108.074H391.748C391.748 103.973 390.747 100.823 388.745 98.626C386.743 96.4287 384.058 95.3301 380.688 95.3301C374.292 95.3301 370.557 99.4072 369.482 107.562C369.141 110.149 368.97 113.714 368.97 118.255C368.97 126.214 369.922 131.731 371.826 134.808C373.73 137.884 376.758 139.422 380.908 139.422ZM391.602 156.268L390.869 160.735C398.193 162.103 401.855 166.326 401.855 173.406C401.855 179.07 399.438 183.514 394.604 186.736C389.771 189.959 383.057 191.57 374.463 191.57L373.95 177.947C378.247 177.947 380.396 176.067 380.396 172.308C380.396 170.452 379.614 169.158 378.052 168.426C376.538 167.693 374.048 167.205 370.581 166.961L372.852 156.268H391.602ZM469.971 157C469.092 155.389 468.311 153.021 467.627 149.896C463.086 155.608 456.738 158.465 448.584 158.465C441.113 158.465 434.766 156.219 429.541 151.727C424.316 147.186 421.704 141.497 421.704 134.661C421.704 126.067 424.878 119.573 431.226 115.179C437.573 110.784 446.802 108.587 458.911 108.587H466.528V104.412C466.528 97.1367 463.379 93.499 457.08 93.499C451.221 93.499 448.291 96.3799 448.291 102.142H423.608C423.608 94.4756 426.855 88.25 433.35 83.4648C439.893 78.6797 448.218 76.2871 458.325 76.2871C468.433 76.2871 476.416 78.7529 482.275 83.6846C488.135 88.6162 491.138 95.3789 491.284 103.973V139.056C491.382 146.331 492.505 151.897 494.653 155.755V157H469.971ZM454.517 140.887C457.593 140.887 460.132 140.228 462.134 138.909C464.185 137.591 465.649 136.102 466.528 134.441V121.771H459.351C450.757 121.771 446.46 125.628 446.46 133.343C446.46 135.589 447.217 137.42 448.73 138.836C450.244 140.203 452.173 140.887 454.517 140.887ZM546.509 134.734C546.509 132.635 545.41 130.95 543.213 129.681C541.016 128.411 536.841 127.093 530.688 125.726C524.536 124.358 519.458 122.576 515.454 120.379C511.45 118.133 508.398 115.423 506.299 112.249C504.199 109.075 503.149 105.438 503.149 101.336C503.149 94.0605 506.152 88.0791 512.158 83.3916C518.164 78.6553 526.025 76.2871 535.742 76.2871C546.191 76.2871 554.59 78.6553 560.938 83.3916C567.285 88.1279 570.459 94.3535 570.459 102.068H545.703C545.703 95.7207 542.358 92.5469 535.669 92.5469C533.081 92.5469 530.908 93.2793 529.15 94.7441C527.393 96.1602 526.514 97.9424 526.514 100.091C526.514 102.288 527.588 104.07 529.736 105.438C531.885 106.805 535.303 107.928 539.99 108.807C544.727 109.686 548.877 110.735 552.441 111.956C564.355 116.058 570.312 123.406 570.312 134.002C570.312 141.229 567.09 147.112 560.645 151.653C554.248 156.194 545.947 158.465 535.742 158.465C528.955 158.465 522.9 157.244 517.578 154.803C512.256 152.361 508.105 149.041 505.127 144.842C502.148 140.643 500.659 136.224 500.659 131.585H523.73C523.828 135.247 525.049 137.933 527.393 139.642C529.736 141.302 532.739 142.132 536.401 142.132C539.771 142.132 542.285 141.448 543.945 140.081C545.654 138.714 546.509 136.932 546.509 134.734Z" fill="#A6173D"/>
</svg>
